<?xml version="1.0" encoding="UTF-8" standalone="no"?>
<!-- Created with Inkscape (http://www.inkscape.org/) -->

<svg
   xmlns:dc="http://purl.org/dc/elements/1.1/"
   xmlns:cc="http://creativecommons.org/ns#"
   xmlns:rdf="http://www.w3.org/1999/02/22-rdf-syntax-ns#"
   xmlns:svg="http://www.w3.org/2000/svg"
   xmlns="http://www.w3.org/2000/svg"
   xmlns:sodipodi="http://sodipodi.sourceforge.net/DTD/sodipodi-0.dtd"
   xmlns:inkscape="http://www.inkscape.org/namespaces/inkscape"
   width="32pt"
   height="32pt"
   viewBox="0 0 11.288889 11.288889"
   version="1.1"
   id="svg8"
   inkscape:version="0.92.0 r15299"
   sodipodi:docname="ROSPackage.svg">
  <defs
     id="defs2" />
  <sodipodi:namedview
     id="base"
     pagecolor="#ffffff"
     bordercolor="#666666"
     borderopacity="1.0"
     inkscape:pageopacity="0.0"
     inkscape:pageshadow="2"
     inkscape:zoom="15.839192"
     inkscape:cx="23.143593"
     inkscape:cy="19.962482"
     inkscape:document-units="mm"
     inkscape:current-layer="layer1"
     showgrid="true"
     units="pt"
     inkscape:window-width="1920"
     inkscape:window-height="1017"
     inkscape:window-x="-8"
     inkscape:window-y="-8"
     inkscape:window-maximized="1">
    <inkscape:grid
       type="axonomgrid"
       id="grid4565"
       units="mm"
       empspacing="5"
       originx="1.5"
       originy="2.9999999"
       snapvisiblegridlinesonly="false"
       spacingy="0.49999999" />
  </sodipodi:namedview>
  <metadata
     id="metadata5">
    <rdf:RDF>
      <cc:Work
         rdf:about="">
        <dc:format>image/svg+xml</dc:format>
        <dc:type
           rdf:resource="http://purl.org/dc/dcmitype/StillImage" />
        <dc:title></dc:title>
      </cc:Work>
    </rdf:RDF>
  </metadata>
  <g
     inkscape:label="Layer 1"
     inkscape:groupmode="layer"
     id="layer1"
     transform="translate(0,-285.71112)">
    <path
       style="fill:none;fill-rule:evenodd;stroke:#000000;stroke-width:0.065;stroke-linecap:butt;stroke-linejoin:miter;stroke-opacity:1;stroke-miterlimit:4;stroke-dasharray:none"
       d="M 5.830127,286.50001 1.5,289.00001"
       id="path4567"
       inkscape:connector-curvature="0" />
    <path
       style="fill:none;fill-rule:evenodd;stroke:#000000;stroke-width:0.065;stroke-linecap:butt;stroke-linejoin:miter;stroke-opacity:1;stroke-miterlimit:4;stroke-dasharray:none"
       d="m 1.5,289.00001 v 5 l 4.330127,2.5 4.330127,-2.5 v -5 l -4.330127,-2.5"
       id="path4569"
       inkscape:connector-curvature="0" />
    <path
       style="fill:none;fill-rule:evenodd;stroke:#000000;stroke-width:0.065;stroke-linecap:butt;stroke-linejoin:miter;stroke-opacity:1;stroke-miterlimit:4;stroke-dasharray:none"
       d="m 1.5,289.00001 4.330127,2.5 4.330127,-2.5"
       id="path4571"
       inkscape:connector-curvature="0" />
    <path
       style="fill:none;fill-rule:evenodd;stroke:#000000;stroke-width:0.065;stroke-linecap:butt;stroke-linejoin:miter;stroke-opacity:1;stroke-miterlimit:4;stroke-dasharray:none"
       d="m 5.830127,291.50001 v 5"
       id="path4573"
       inkscape:connector-curvature="0" />
    <ellipse
       style="opacity:1;fill:#2b2586;fill-opacity:1;fill-rule:nonzero;stroke:none;stroke-width:0.06984705;stroke-linecap:square;stroke-linejoin:miter;stroke-miterlimit:4;stroke-dasharray:none;stroke-opacity:1;paint-order:normal"
       id="path4586-17"
       cx="7.7603478"
       cy="295.90738"
       rx="0.49999997"
       ry="0.43301269"
       transform="matrix(0.86602541,-0.49999999,0,1,0,0)" />
    <ellipse
       style="opacity:1;fill:#2b2586;fill-opacity:1;fill-rule:nonzero;stroke:none;stroke-width:0.06984705;stroke-linecap:square;stroke-linejoin:miter;stroke-miterlimit:4;stroke-dasharray:none;stroke-opacity:1;paint-order:normal"
       id="path4586-1-2"
       cx="9.235919"
       cy="295.89832"
       rx="0.49999997"
       ry="0.43301269"
       transform="matrix(0.86602541,-0.49999999,0,1,0,0)" />
    <ellipse
       style="opacity:1;fill:#2b2586;fill-opacity:1;fill-rule:nonzero;stroke:none;stroke-width:0.06984705;stroke-linecap:square;stroke-linejoin:miter;stroke-miterlimit:4;stroke-dasharray:none;stroke-opacity:1;paint-order:normal"
       id="path4586-2-5"
       cx="10.753707"
       cy="295.91183"
       rx="0.49999997"
       ry="0.43301269"
       transform="matrix(0.86602541,-0.49999999,0,1,0,0)" />
    <ellipse
       style="opacity:1;fill:#2b2586;fill-opacity:1;fill-rule:nonzero;stroke:none;stroke-width:0.06984705;stroke-linecap:square;stroke-linejoin:miter;stroke-miterlimit:4;stroke-dasharray:none;stroke-opacity:1;paint-order:normal"
       id="path4586-0-6"
       cx="7.7566824"
       cy="297.40942"
       rx="0.49999997"
       ry="0.43301269"
       transform="matrix(0.86602541,-0.49999999,0,1,0,0)" />
    <ellipse
       style="opacity:1;fill:#2b2586;fill-opacity:1;fill-rule:nonzero;stroke:none;stroke-width:0.06984705;stroke-linecap:square;stroke-linejoin:miter;stroke-miterlimit:4;stroke-dasharray:none;stroke-opacity:1;paint-order:normal"
       id="path4586-1-7-1"
       cx="9.2322531"
       cy="297.40036"
       rx="0.49999997"
       ry="0.43301269"
       transform="matrix(0.86602541,-0.49999999,0,1,0,0)" />
    <ellipse
       style="opacity:1;fill:#2b2586;fill-opacity:1;fill-rule:nonzero;stroke:none;stroke-width:0.06984705;stroke-linecap:square;stroke-linejoin:miter;stroke-miterlimit:4;stroke-dasharray:none;stroke-opacity:1;paint-order:normal"
       id="path4586-2-8-6"
       cx="10.750042"
       cy="297.41388"
       rx="0.49999997"
       ry="0.43301269"
       transform="matrix(0.86602541,-0.49999999,0,1,0,0)" />
    <ellipse
       style="opacity:1;fill:#2b2586;fill-opacity:1;fill-rule:nonzero;stroke:none;stroke-width:0.06984705;stroke-linecap:square;stroke-linejoin:miter;stroke-miterlimit:4;stroke-dasharray:none;stroke-opacity:1;paint-order:normal"
       id="path4586-8-5"
       cx="7.7627592"
       cy="298.91904"
       rx="0.49999997"
       ry="0.43301269"
       transform="matrix(0.86602541,-0.49999999,0,1,0,0)" />
    <ellipse
       style="opacity:1;fill:#2b2586;fill-opacity:1;fill-rule:nonzero;stroke:none;stroke-width:0.06984705;stroke-linecap:square;stroke-linejoin:miter;stroke-miterlimit:4;stroke-dasharray:none;stroke-opacity:1;paint-order:normal"
       id="path4586-1-9-9"
       cx="9.2383318"
       cy="298.90997"
       rx="0.49999997"
       ry="0.43301269"
       transform="matrix(0.86602541,-0.49999999,0,1,0,0)" />
    <ellipse
       style="opacity:1;fill:#2b2586;fill-opacity:1;fill-rule:nonzero;stroke:none;stroke-width:0.06984705;stroke-linecap:square;stroke-linejoin:miter;stroke-miterlimit:4;stroke-dasharray:none;stroke-opacity:1;paint-order:normal"
       id="path4586-2-2-9"
       cx="10.756118"
       cy="298.92349"
       rx="0.49999997"
       ry="0.43301269"
       transform="matrix(0.86602541,-0.49999999,0,1,0,0)" />
    <text
       xml:space="preserve"
       style="font-style:normal;font-weight:normal;font-size:1.8062222px;line-height:2.11666656px;font-family:sans-serif;letter-spacing:0px;word-spacing:0px;fill:#ffffff;fill-opacity:1;stroke:none;stroke-width:0.26458332px;stroke-linecap:butt;stroke-linejoin:miter;stroke-opacity:1;"
       x="1.6922107"
       y="291.30841"
       id="text4762"
       transform="skewY(30)"><tspan
         sodipodi:role="line"
         id="tspan4760"
         x="1.6922107"
         y="291.30841"
         style="stroke-width:0.26458332px;fill:#ffffff;">PKG</tspan></text>
    <path
       style="fill:#a05a2c;fill-rule:evenodd;stroke:#000000;stroke-width:0.065;stroke-linecap:butt;stroke-linejoin:miter;stroke-opacity:1;stroke-miterlimit:4;stroke-dasharray:none"
       d="m 3.6650633,290.25001 4.3301269,-2.5"
       id="path4788"
       inkscape:connector-curvature="0" />
    <path
       style="opacity:1;fill:#a05a2c;fill-opacity:1;fill-rule:nonzero;stroke:none;stroke-width:0.24566929;stroke-linecap:square;stroke-linejoin:miter;stroke-miterlimit:4;stroke-dasharray:none;stroke-opacity:1;paint-order:normal"
       d="M 13.842839,35.880598 5.8429273,31.261039 5.840537,21.990785 c -0.00131,-5.09864 0.021319,-9.260784 0.050297,-9.24921 0.028978,0.01158 3.6371167,2.09144 8.018086,4.621923 l 7.965398,4.600877 v 9.272936 c 0,5.100115 -0.0071,9.270667 -0.01578,9.267892 -0.0087,-0.0028 -3.615744,-2.083847 -8.015696,-4.624605 z m 6.263712,-4.582131 V 30.23104 l -0.931234,-0.538797 c -1.229246,-0.711222 -1.152286,-0.690094 -1.151838,-0.316211 l 3.79e-4,0.306643 0.661654,0.378808 0.661655,0.378807 8.9e-4,0.590839 8.91e-4,0.590838 -0.17362,-0.04222 c -0.46023,-0.111913 -1.234948,-0.56041 -1.658954,-0.960395 -0.76901,-0.725446 -1.136345,-1.512485 -1.144137,-2.45139 -0.0052,-0.630702 0.08033,-0.921321 0.334119,-1.134872 0.527992,-0.444276 1.581805,0.01999 2.670502,1.176505 0.297166,0.315677 0.540301,0.598695 0.540301,0.628928 0,0.03023 0.04261,0.05497 0.0947,0.05497 0.07404,0 0.0947,-0.08578 0.0947,-0.393202 v -0.3932 L 19.711971,27.734616 C 18.07994,26.19406 16.5383,25.693374 15.921186,26.503466 c -0.240081,0.315157 -0.318244,0.720705 -0.281668,1.461428 0.0652,1.320466 0.750641,2.517053 1.964549,3.429564 0.67713,0.509007 1.744886,0.958944 2.297308,0.968052 l 0.205176,0.0034 z M 15.11193,29.761593 c -0.04101,-0.07813 -0.553403,-0.960141 -1.138643,-1.960028 -0.58524,-0.999886 -1.064073,-1.825858 -1.064073,-1.835491 0,-0.0096 0.481925,-0.242735 1.070945,-0.518002 0.58902,-0.275268 1.062724,-0.52831 1.052678,-0.562315 -0.01005,-0.03401 -0.184515,-0.158971 -0.387708,-0.277701 l -0.369441,-0.215873 -1.157186,0.57759 c -0.636452,0.317675 -1.171193,0.57759 -1.188313,0.57759 -0.01712,0 -0.03113,-0.567636 -0.03113,-1.261413 v -1.261414 l -0.331456,-0.190088 c -0.182301,-0.104549 -0.352765,-0.190355 -0.378808,-0.190681 -0.02604,-3.16e-4 -0.04735,1.119539 -0.04735,2.488588 v 2.489181 l 0.339141,0.194037 c 0.186528,0.10672 0.356991,0.194037 0.378807,0.194037 0.02182,0 0.03967,-0.37828 0.03967,-0.840623 v -0.840623 l 0.219131,-0.104496 0.219131,-0.104496 0.528902,0.897768 c 0.290895,0.493772 0.732258,1.244249 0.980807,1.667726 0.4298,0.732296 0.471186,0.780885 0.846114,0.993395 0.463242,0.262566 0.51866,0.273594 0.418783,0.08333 z M 7.7321827,24.726614 c 0,-0.486136 0.016351,-0.883883 0.036336,-0.883883 0.019985,0 0.225961,0.110505 0.4577254,0.245567 0.6311429,0.367802 0.8895207,0.462252 1.2888955,0.471158 0.3300003,0.0074 0.3808424,-0.01033 0.5682104,-0.197699 0.200935,-0.200935 0.205781,-0.218796 0.205781,-0.758322 0,-0.494151 -0.02137,-0.595957 -0.202255,-0.96338 -0.2110314,-0.428666 -0.7391512,-1.016291 -1.186704,-1.320416 -0.2777381,-0.18873 -1.7906,-1.075577 -1.8348153,-1.075577 -0.015209,0 -0.027538,1.129319 -0.027397,2.509598 l 2.589e-4,2.509598 0.299632,0.17181 c 0.1647977,0.09449 0.32094,0.172624 0.346983,0.17362 0.026041,9.95e-4 0.047349,-0.395938 0.047349,-0.882074 z"
       id="path4790"
       inkscape:connector-curvature="0"
       transform="matrix(0.26458333,0,0,0.26458333,0,285.71112)" />
    <path
       style="opacity:1;fill:#a05a2c;fill-opacity:1;fill-rule:nonzero;stroke:none;stroke-width:0.24566929;stroke-linecap:square;stroke-linejoin:miter;stroke-miterlimit:4;stroke-dasharray:none;stroke-opacity:1;paint-order:normal"
       d="M 8.3655883,23.51577 7.7321827,23.18881 v -0.965141 -0.96514 l 0.509972,0.297732 c 0.9293666,0.542583 1.3209295,1.041823 1.3209295,1.684177 0,0.395931 -0.1398992,0.602293 -0.4083142,0.602293 -0.085677,0 -0.4408085,-0.147132 -0.7891817,-0.326961 z"
       id="path4792"
       inkscape:connector-curvature="0"
       transform="matrix(0.26458333,0,0,0.26458333,0,285.71112)" />
    <path
       style="opacity:1;fill:#a05a2c;fill-opacity:1;fill-rule:nonzero;stroke:none;stroke-width:0.24566929;stroke-linecap:square;stroke-linejoin:miter;stroke-miterlimit:4;stroke-dasharray:none;stroke-opacity:1;paint-order:normal"
       d="m 22.189991,31.242697 v -9.274706 l 7.970735,-4.597245 c 4.383904,-2.528485 7.992043,-4.608473 8.018086,-4.622195 0.02604,-0.01372 0.04659,4.145973 0.04566,9.243769 l -0.0017,9.268719 -7.771816,4.482552 c -4.274499,2.465403 -7.881878,4.548086 -8.016399,4.628183 l -0.244582,0.145631 z m 3.062025,5.741267 c 1.210514,-0.575377 2.105586,-2.247664 1.709906,-3.194661 -0.297601,-0.712258 -1.335224,-0.558558 -2.224212,0.329464 -0.568364,0.567747 -0.92987,1.309436 -0.958878,1.967296 -0.01847,0.418857 -0.0025,0.505614 0.128164,0.698328 0.290268,0.427954 0.727919,0.492892 1.34502,0.199573 z m 4.817721,-2.818169 c 0.899263,-0.418645 1.683965,-1.488767 1.814775,-2.474864 0.131102,-0.988293 -0.583004,-1.444285 -1.538357,-0.98232 -0.752783,0.364013 -1.523886,1.37197 -1.720007,2.248332 -0.133274,0.59553 0.0418,1.156738 0.406876,1.304244 0.258031,0.104256 0.694038,0.06414 1.036713,-0.09539 z M 34.799366,31.4498 c 0.895638,-0.265976 1.869685,-1.442957 2.023885,-2.445542 0.07378,-0.479712 -0.0093,-0.85767 -0.238986,-1.087165 -0.173093,-0.172953 -0.229992,-0.191397 -0.584965,-0.189624 -0.313736,0.0016 -0.463242,0.03985 -0.739626,0.189403 -1.047423,0.56676 -1.859783,1.996722 -1.679691,2.956691 0.04737,0.252497 0.344294,0.585738 0.558754,0.627095 0.262527,0.05063 0.33862,0.04477 0.660629,-0.05086 z m -9.534875,-0.163233 c 0.383685,-0.185739 0.999207,-0.766514 1.293551,-1.220531 0.819806,-1.264521 0.549145,-2.555239 -0.505516,-2.410681 -0.916231,0.125583 -1.963143,1.225332 -2.256488,2.370371 -0.162467,0.63417 -0.03924,1.078959 0.370338,1.33677 0.249343,0.156949 0.678325,0.127287 1.098115,-0.07593 z m 4.838811,-2.830139 c 0.920937,-0.445818 1.746871,-1.682467 1.754115,-2.626392 0.0052,-0.678324 -0.2697,-1.004937 -0.838621,-0.996354 -0.742597,0.0112 -1.702725,0.790207 -2.179647,1.768468 -0.217755,0.446659 -0.239917,0.539572 -0.240434,1.008017 -6.31e-4,0.558563 0.09727,0.783237 0.415892,0.954539 0.214297,0.115215 0.733739,0.06355 1.088695,-0.108278 z m 4.952321,-2.818914 c 0.389142,-0.172852 0.999445,-0.731679 1.284905,-1.17653 0.43421,-0.676657 0.606437,-1.499402 0.410687,-1.96189 -0.152503,-0.36031 -0.318279,-0.455714 -0.791596,-0.455563 -0.370163,1.26e-4 -0.467096,0.02727 -0.788732,0.220971 -0.516544,0.311075 -1.054806,0.909053 -1.342803,1.491776 -0.368252,0.745106 -0.376131,1.564705 -0.01816,1.888668 0.264637,0.239493 0.695579,0.236922 1.245694,-0.0074 z m -9.723156,-0.06464 c 0.503426,-0.245771 1.103179,-0.889024 1.414286,-1.516864 0.215429,-0.434755 0.264673,-0.604117 0.28632,-0.98473 0.03154,-0.554509 -0.08865,-0.842673 -0.423665,-1.015811 -0.700253,-0.361894 -1.953804,0.431216 -2.552551,1.614975 -0.216513,0.42806 -0.251206,0.556813 -0.272179,1.010136 -0.02051,0.443331 -0.0048,0.550169 0.107332,0.728303 0.26508,0.421237 0.790902,0.4811 1.440457,0.163991 z m 4.817046,-2.804665 c 0.422825,-0.214053 1.189595,-1.029058 1.425165,-1.514817 0.507052,-1.045572 0.382003,-1.900771 -0.304986,-2.085757 -0.823916,-0.221858 -2.110657,0.826186 -2.553073,2.079465 -0.258105,0.731163 -0.167148,1.33115 0.240751,1.588087 0.266069,0.167598 0.786541,0.138356 1.192143,-0.06698 z m 4.9673,-2.84191 c 0.530902,-0.265295 1.159402,-0.941185 1.459467,-1.569513 0.210108,-0.439963 0.229356,-0.527021 0.229356,-1.037401 v -0.557134 l -0.24357,-0.223359 c -0.229671,-0.210614 -0.263948,-0.221885 -0.600691,-0.197527 -0.512998,0.03711 -0.918803,0.2575 -1.438538,0.781272 -0.591791,0.596388 -0.912611,1.232178 -0.954993,1.892571 -0.04924,0.7672 0.202383,1.09501 0.844379,1.100059 0.235141,0.0018 0.424198,-0.04885 0.70459,-0.188968 z"
       id="path4794"
       inkscape:connector-curvature="0"
       transform="matrix(0.26458333,0,0,0.26458333,0,285.71112)" />
    <path
       style="opacity:1;fill:#a05a2c;fill-opacity:1;fill-rule:nonzero;stroke:none;stroke-width:0.24566929;stroke-linecap:square;stroke-linejoin:miter;stroke-miterlimit:4;stroke-dasharray:none;stroke-opacity:1;paint-order:normal"
       d="m 18.148683,19.456018 c -2.134843,-1.232432 -3.889168,-2.26369 -3.8985,-2.291687 -0.01398,-0.04195 15.73961,-9.1813842 15.93299,-9.2435121 0.06807,-0.021868 7.847765,4.4400371 7.851325,4.5029851 0.0017,0.0298 -15.763229,9.169705 -15.966694,9.256892 -0.02067,0.0089 -1.784277,-0.992247 -3.919121,-2.224678 z"
       id="path4796"
       inkscape:connector-curvature="0"
       transform="matrix(0.26458333,0,0,0.26458333,0,285.71112)" />
    <path
       style="opacity:1;fill:#a05a2c;fill-opacity:1;fill-rule:nonzero;stroke:none;stroke-width:0.24566929;stroke-linecap:square;stroke-linejoin:miter;stroke-miterlimit:4;stroke-dasharray:none;stroke-opacity:1;paint-order:normal"
       d="M 9.9278211,14.711014 C 7.7845569,13.473458 6.0441951,12.439525 6.0603506,12.413385 6.0930954,12.360403 22.013295,3.1613313 22.049454,3.1744995 c 0.01258,0.00458 1.784492,1.0245713 3.937586,2.2666458 l 3.914717,2.2583172 -0.178296,0.1105515 c -0.353003,0.2188767 -15.744634,9.093275 -15.820796,9.121843 -0.0429,0.01609 -1.83158,-0.983288 -3.9748439,-2.220843 z"
       id="path4798"
       inkscape:connector-curvature="0"
       transform="matrix(0.26458333,0,0,0.26458333,0,285.71112)" />
  </g>
</svg>
